<svg width="1073.0437988281249px" height="191.61494140624998px" xmlns="http://www.w3.org/2000/svg" viewBox="-286.52189941406243 -20.80747070312499 1073.0437988281249 191.61494140624998" style="background: none;" preserveAspectRatio="xMidYMid"><defs><filter id="editing-raise" x="-100%" y="-100%" width="300%" height="300%"><feFlood flood-color="#fb8b26" result="flood-surface"></feFlood><feFlood flood-color="#ffffff" result="flood-extrude"></feFlood><feMorphology operator="erode" in="SourceAlpha" radius="1" result="erode"></feMorphology><feConvolveMatrix in="erode" result="shadow" order="11,8" divisor="1" kernelMatrix="0 0 0 1 1 1 1 1 0 0 0 0 0 1 0 0 0 0 0 1 0 0 0 0 1 0 0 0 0 0 1 0 0 0 0 1 0 0 0 0 0 1 0 0 0 0 1 0 0 0 0 0 1 0 0 0 0 0 1 0 0 0 1 0 0 0 0 0 0 1 1 0 1 1 0 0 0 0 0 0 0 0 1 0 0 0 0 0"></feConvolveMatrix><feOffset dx="0" dy="4" in="shadow" result="offset"></feOffset><feGaussianBlur in="offset" stdDeviation="0.2" result="blur"></feGaussianBlur><feComposite operator="in" in="flood-extrude" in2="blur" result="extrude"></feComposite><feMorphology operator="erode" in="SourceAlpha" radius="1" result="erode2"></feMorphology><feConvolveMatrix in="erode2" result="out" order="4,4" divisor="1" kernelMatrix="0 1 1 0 1 0 0 1 1 0 0 1 0 1 1 0 "></feConvolveMatrix><feComposite operator="in" in="flood-surface" in2="out" result="text"></feComposite><feMerge><feMergeNode in="extrude"></feMergeNode><feMergeNode in="text"></feMergeNode></feMerge></filter></defs><g filter="url(#editing-raise)"><g transform="translate(-140.59031370282173, 119.77000045776367)"><path d="M15.62 0.70L15.62 0.70Q11.20 0.70 7.52-0.77L7.52-0.77L7.52-0.77Q3.84-2.24 1.70-5.09L1.70-5.09L1.70-5.09Q-0.45-7.94-0.45-11.84L-0.45-11.84L-0.45-11.84Q-0.45-17.92 3.20-22.34L3.20-22.34L3.20-22.34Q4.29-23.68 5.57-24.90L5.57-24.90L5.57-24.90Q6.85-26.11 7.62-26.11L7.62-26.11L7.62-26.11Q8.83-26.11 8.83-25.02L8.83-25.02L8.83-25.02Q8.83-24.51 8.58-24.13L8.58-24.13L8.58-24.13Q5.38-21.25 4-18.56L4-18.56L4-18.56Q2.62-15.87 2.62-12.74L2.62-12.74L2.62-12.74Q2.62-7.36 6.43-4.74L6.43-4.74L6.43-4.74Q10.24-2.11 15.94-2.11L15.94-2.11L15.94-2.11Q19.58-2.11 22.37-4L22.37-4L22.37-4Q25.15-5.89 26.66-9.09L26.66-9.09L26.66-9.09Q28.16-12.29 28.16-16L28.16-16L28.16-16Q28.16-21.63 22.98-33.60L22.98-33.60L22.98-33.60Q17.79-45.70 17.79-50.43L17.79-50.43L17.79-50.43Q17.79-55.36 20.16-58.62L20.16-58.62L20.16-58.62Q22.53-61.89 26.94-61.89L26.94-61.89L26.94-61.89Q30.34-61.89 32.61-60.19L32.61-60.19L32.61-60.19Q34.88-58.50 35.97-56.35L35.97-56.35L35.97-56.35Q37.06-54.21 37.06-52.86L37.06-52.86L37.06-52.86Q37.06-52.22 36.51-51.74L36.51-51.74L36.51-51.74Q35.97-51.26 35.39-51.26L35.39-51.26L35.39-51.26Q34.43-51.26 34.24-52.42L34.24-52.42L34.24-52.42Q33.79-55.36 31.81-57.28L31.81-57.28L31.81-57.28Q29.82-59.20 26.94-59.20L26.94-59.20L26.94-59.20Q24.06-59.20 22.46-57.18L22.46-57.18L22.46-57.18Q20.86-55.17 20.86-52.16L20.86-52.16L20.86-52.16Q20.86-47.94 22.14-43.94L22.14-43.94L22.14-43.94Q23.42-39.94 26.05-33.86L26.05-33.86L26.05-33.86Q28.61-28.03 29.92-23.97L29.92-23.97L29.92-23.97Q31.23-19.90 31.23-15.68L31.23-15.68L31.23-15.68Q31.23-11.58 29.63-7.84L29.63-7.84L29.63-7.84Q28.03-4.10 24.51-1.70L24.51-1.70L24.51-1.70Q20.99 0.70 15.62 0.70L15.62 0.70ZM62.27 0.13L62.27 0.13Q60.80 0.13 59.55-1.44L59.55-1.44L59.55-1.44Q58.30-3.01 58.30-4.80L58.30-4.80L58.30-4.80Q58.30-8.77 60.42-18.24L60.42-18.24L60.42-18.24Q58.82-14.78 56.29-11.17L56.29-11.17L56.29-11.17Q53.76-7.55 51.33-4.80L51.33-4.80L51.33-4.80Q48.90-2.05 47.74-1.22L47.74-1.22L47.74-1.22Q46.14 0 44.22 0L44.22 0L44.22 0Q40.58 0 40.58-4.61L40.58-4.61L40.58-4.61Q40.58-9.09 43.97-15.78L43.97-15.78L43.97-15.78Q47.36-22.46 52.03-27.39L52.03-27.39L52.03-27.39Q56.70-32.26 59.58-32.26L59.58-32.26L59.58-32.26Q62.53-32.26 62.91-29.70L62.91-29.70L62.91-29.70Q63.10-28.93 63.10-28.03L63.10-28.03L63.10-28.03Q63.42-28.22 63.81-28.22L63.81-28.22L63.81-28.22Q65.28-28.22 65.28-26.82L65.28-26.82L65.28-26.56L64.51-23.74L64.51-23.74Q63.62-20.54 62.66-14.27L62.66-14.27L62.66-14.27Q61.70-8 61.70-3.84L61.70-3.84L62.34-3.46L62.34-3.46Q63.87-2.50 63.87-1.54L63.87-1.54L63.87-1.54Q63.87-0.90 63.42-0.38L63.42-0.38L63.42-0.38Q62.98 0.13 62.27 0.13L62.27 0.13ZM44.74-3.33L44.74-3.33Q45.44-3.33 45.89-3.78L45.89-3.78L45.89-3.78Q52.42-9.34 57.47-19.20L57.47-19.20L57.47-19.20Q59.65-23.30 60.19-24.58L60.19-24.58L60.19-24.58Q60.74-25.86 60.74-27.07L60.74-27.07L60.74-27.07Q60.74-27.71 60.42-28.22L60.42-28.22L60.42-28.22Q60.10-28.74 59.58-28.74L59.58-28.74L59.58-28.74Q58.94-28.74 57.92-28.16L57.92-28.16L57.92-28.16Q55.36-26.82 51.87-22.46L51.87-22.46L51.87-22.46Q48.38-18.11 46.14-13.25L46.14-13.25L46.14-13.25Q43.78-8.32 43.78-4.48L43.78-4.48L43.78-4.48Q43.78-3.33 44.74-3.33L44.74-3.33ZM76.54 0.26L76.54 0.26Q74.30 0.26 73.18-0.90L73.18-0.90L73.18-0.90Q72.06-2.05 72.06-5.06L72.06-5.06L72.06-5.06Q72.06-6.72 72.45-8.90L72.45-8.90L73.02-12.54L73.73-15.55L74.11-17.28L74.94-20.80L74.94-20.80Q75.07-21.63 75.52-23.49L75.52-23.49L75.84-24.77L76.42-27.52L76.80-29.44L76.80-29.44Q74.30-29.44 72.19-29.12L72.19-29.12L72.19-29.12Q70.91-29.31 70.91-30.21L70.91-30.21L70.91-30.21Q70.91-30.85 71.42-31.42L71.42-31.42L71.42-31.42Q71.94-32 72.64-32.06L72.64-32.06L77.25-31.94L77.25-31.94Q77.25-31.94 77.57-33.54L77.57-33.54L77.57-33.54Q77.70-34.82 78.08-36.48L78.08-36.48L78.08-36.48Q78.46-38.14 79.04-39.42L79.04-39.42L79.04-39.42Q79.62-40.83 80.70-40.83L80.70-40.83L80.70-40.83Q81.73-40.83 81.73-39.68L81.73-39.68L81.73-39.30L81.73-39.30Q81.47-38.02 81.28-37.44L81.28-37.44L80.19-32L84.80-32L84.80-32Q87.23-32 87.81-31.62L87.81-31.62L87.81-31.62Q88.32-31.23 88.32-30.66L88.32-30.66L88.32-30.66Q88.32-29.63 87.39-29.34L87.39-29.34L87.39-29.34Q86.46-29.06 84.22-29.06L84.22-29.06L84.22-29.06Q82.18-29.06 79.68-29.25L79.68-29.25L79.68-29.25Q79.30-27.14 77.06-17.54L77.06-17.54L77.06-17.54Q75.01-8.83 75.01-6.53L75.01-6.53L75.01-6.53Q75.01-4.03 75.58-3.26L75.58-3.26L75.58-3.26Q75.90-2.75 76.93-2.75L76.93-2.75L76.93-2.75Q77.82-2.75 78.50-3.23L78.50-3.23L78.50-3.23Q79.17-3.71 79.87-4.54L79.87-4.54L79.87-4.54Q80.58-5.44 81.09-5.89L81.09-5.89L81.09-5.89Q81.60-6.34 82.18-6.34L82.18-6.34L82.18-6.34Q83.46-6.34 83.46-5.06L83.46-5.06L83.46-5.06Q83.46-4.42 82.18-2.94L82.18-2.94L82.18-2.94Q80.90-1.47 79.74-0.58L79.74-0.58L79.74-0.58Q78.72 0.26 76.54 0.26L76.54 0.26ZM93.38 26.69L93.38 26.69Q91.33 26.69 89.76 25.60L89.76 25.60L89.76 25.60Q88.19 24.51 87.36 22.88L87.36 22.88L87.36 22.88Q86.53 21.25 86.53 19.65L86.53 19.65L86.53 19.65Q86.53 15.74 88.64 12.67L88.64 12.67L88.64 12.67Q90.18 10.43 93.76 7.87L93.76 7.87L93.76 7.87Q97.02 5.44 97.60 5.18L97.60 5.18L103.17 1.09L103.17 1.09Q103.36 0.19 105.54-6.85L105.54-6.85L106.37-9.47L106.37-9.47Q106.82-11.07 107.26-12.42L107.26-12.42L107.26-12.42Q107.71-13.76 107.90-14.66L107.90-14.66L107.90-14.66Q105.15-6.66 101.31-2.43L101.31-2.43L101.31-2.43Q98.75 0.51 96.32 0.51L96.32 0.51L96.32 0.51Q93.89 0.51 92.38-1.44L92.38-1.44L92.38-1.44Q90.88-3.39 90.88-6.78L90.88-6.78L90.88-6.78Q90.88-12.16 93.95-23.74L93.95-23.74L93.95-23.74Q95.49-29.50 95.49-29.95L95.49-29.95L95.49-29.95Q95.42-30.21 95.42-30.53L95.42-30.53L95.42-30.53Q95.42-30.98 95.62-31.23L95.62-31.23L95.62-31.23Q96.51-32.45 97.73-32.45L97.73-32.45L97.73-32.45Q98.94-32.45 98.94-31.17L98.94-31.17L98.94-31.17Q98.94-29.89 96.58-20.42L96.58-20.42L96.58-20.42Q94.21-10.94 94.21-7.55L94.21-7.55L94.21-7.55Q94.21-4.22 95.04-3.39L95.04-3.39L95.04-3.39Q95.81-2.56 96.96-2.56L96.96-2.56L96.96-2.56Q99.39-2.56 102.14-6.66L102.14-6.66L102.14-6.66Q104.32-9.86 106.02-15.26L106.02-15.26L106.02-15.26Q107.71-20.67 109.18-26.69L109.18-26.69L109.50-27.97L109.50-27.97Q110.21-30.85 110.72-31.55L110.72-31.55L110.72-31.55Q111.23-32.32 112.26-32.32L112.26-32.32L112.26-32.32Q113.28-32.32 113.28-31.55L113.28-31.55L113.28-31.55Q113.28-30.66 110.53-18.50L110.53-18.50L110.53-18.50Q107.84-7.17 106.69-1.60L106.69-1.60L106.69-1.60Q107.97-2.69 108.93-3.65L108.93-3.65L108.93-3.65Q110.21-4.93 110.82-5.44L110.82-5.44L110.82-5.44Q111.42-5.95 111.94-5.95L111.94-5.95L111.94-5.95Q113.15-5.95 113.15-4.86L113.15-4.86L113.15-4.86Q113.15-4.29 112.64-3.58L112.64-3.58L112.64-3.58Q109.18-0.51 105.98 1.92L105.98 1.92L105.98 1.92Q104.45 10.37 103.10 15.33L103.10 15.33L103.10 15.33Q101.76 20.29 99.42 23.49L99.42 23.49L99.42 23.49Q97.09 26.69 93.38 26.69L93.38 26.69ZM93.44 23.62L93.44 23.62Q97.34 23.62 100.10 14.59L100.10 14.59L101.57 8.96L102.40 4.80L102.40 4.80Q99.90 6.72 97.54 8.32L97.54 8.32L97.54 8.32Q95.17 9.92 93.66 11.20L93.66 11.20L93.66 11.20Q92.16 12.48 90.98 14.46L90.98 14.46L90.98 14.46Q89.79 16.45 89.79 19.01L89.79 19.01L89.79 19.01Q89.79 21.63 91.52 23.04L91.52 23.04L91.52 23.04Q92.16 23.62 93.44 23.62L93.44 23.62ZM138.11 0.13L138.11 0.13Q136.64 0.13 135.39-1.44L135.39-1.44L135.39-1.44Q134.14-3.01 134.14-4.80L134.14-4.80L134.14-4.80Q134.14-8.77 136.26-18.24L136.26-18.24L136.26-18.24Q134.66-14.78 132.13-11.17L132.13-11.17L132.13-11.17Q129.60-7.55 127.17-4.80L127.17-4.80L127.17-4.80Q124.74-2.05 123.58-1.22L123.58-1.22L123.58-1.22Q121.98 0 120.06 0L120.06 0L120.06 0Q116.42 0 116.42-4.61L116.42-4.61L116.42-4.61Q116.42-9.09 119.81-15.78L119.81-15.78L119.81-15.78Q123.20-22.46 127.87-27.39L127.87-27.39L127.87-27.39Q132.54-32.26 135.42-32.26L135.42-32.26L135.42-32.26Q138.37-32.26 138.75-29.70L138.75-29.70L138.75-29.70Q138.94-28.93 138.94-28.03L138.94-28.03L138.94-28.03Q139.26-28.22 139.65-28.22L139.65-28.22L139.65-28.22Q141.12-28.22 141.12-26.82L141.12-26.82L141.12-26.56L140.35-23.74L140.35-23.74Q139.46-20.54 138.50-14.27L138.50-14.27L138.50-14.27Q137.54-8 137.54-3.84L137.54-3.84L138.18-3.46L138.18-3.46Q139.71-2.50 139.71-1.54L139.71-1.54L139.71-1.54Q139.71-0.90 139.26-0.38L139.26-0.38L139.26-0.38Q138.82 0.13 138.11 0.13L138.11 0.13ZM120.58-3.33L120.58-3.33Q121.28-3.33 121.73-3.78L121.73-3.78L121.73-3.78Q128.26-9.34 133.31-19.20L133.31-19.20L133.31-19.20Q135.49-23.30 136.03-24.58L136.03-24.58L136.03-24.58Q136.58-25.86 136.58-27.07L136.58-27.07L136.58-27.07Q136.58-27.71 136.26-28.22L136.26-28.22L136.26-28.22Q135.94-28.74 135.42-28.74L135.42-28.74L135.42-28.74Q134.78-28.74 133.76-28.16L133.76-28.16L133.76-28.16Q131.20-26.82 127.71-22.46L127.71-22.46L127.71-22.46Q124.22-18.11 121.98-13.25L121.98-13.25L121.98-13.25Q119.62-8.32 119.62-4.48L119.62-4.48L119.62-4.48Q119.62-3.33 120.58-3.33L120.58-3.33ZM175.23 1.41L175.23 1.41Q163.84 1.41 163.84-18.88L163.84-18.88L163.84-18.88Q163.84-28.16 166.40-36.96L166.40-36.96L166.40-36.96Q168.96-45.76 173.54-51.30L173.54-51.30L173.54-51.30Q178.11-56.83 184.00-56.83L184.00-56.83L184.00-56.83Q187.71-56.83 190.72-54.27L190.72-54.27L190.72-54.27Q191.62-53.38 191.62-52.61L191.62-52.61L191.62-52.61Q191.62-52.16 191.30-51.90L191.30-51.90L191.30-51.90Q190.98-51.65 190.40-51.65L190.40-51.65L190.40-51.65Q189.70-51.65 188.80-52.10L188.80-52.10L188.80-52.10Q185.98-53.70 183.04-53.70L183.04-53.70L183.04-53.70Q178.30-53.70 174.59-47.84L174.59-47.84L174.59-47.84Q170.88-41.98 168.80-33.98L168.80-33.98L168.80-33.98Q166.72-25.98 166.72-20.22L166.72-20.22L166.72-20.22Q166.72-10.62 168.90-6.08L168.90-6.08L168.90-6.08Q171.07-1.54 175.81-1.54L175.81-1.54L175.81-1.54Q180.74-1.54 184.86-5.54L184.86-5.54L184.86-5.54Q188.99-9.54 191.81-15.84L191.81-15.84L191.81-15.84Q194.62-22.14 196.10-29.06L196.10-29.06L196.10-29.06Q197.57-35.58 197.57-41.86L197.57-41.86L197.57-41.86Q197.57-49.60 195.14-54.53L195.14-54.53L195.14-54.53Q193.28-58.11 190.53-58.88L190.53-58.88L190.53-58.88Q189.95-59.07 188.54-59.33L188.54-59.33L188.54-59.33Q186.69-59.65 185.66-60L185.66-60L185.66-60Q184.64-60.35 184.64-60.99L184.64-60.99L184.64-60.99Q184.64-62.21 186.24-62.40L186.24-62.40L186.24-62.40Q194.69-62.40 197.63-56.06L197.63-56.06L197.63-56.06Q200.58-49.73 200.58-40L200.58-40L200.58-40Q200.58-33.09 198.72-25.76L198.72-25.76L198.72-25.76Q196.86-18.43 193.47-12.22L193.47-12.22L193.47-12.22Q189.95-5.82 185.25-2.21L185.25-2.21L185.25-2.21Q180.54 1.41 175.23 1.41L175.23 1.41ZM207.23 0.64L207.23 0.64Q205.06 0.64 205.06-2.88L205.06-2.88L205.06-2.88Q205.06-3.78 205.38-4.48L205.38-4.48L205.38-4.48Q205.70-5.57 205.95-6.98L205.95-6.98L206.91-11.26L208.19-16.90L208.19-16.90Q208.83-20.03 209.73-23.94L209.73-23.94L209.73-23.94Q209.86-24.32 209.98-25.22L209.98-25.22L209.98-25.22Q210.62-27.97 210.62-28.42L210.62-28.42L210.62-29.06L210.62-29.06Q210.62-29.57 210.18-31.17L210.18-31.17L210.18-31.17Q210.18-31.94 210.72-32.58L210.72-32.58L210.72-32.58Q211.26-33.22 212.03-33.22L212.03-33.22L212.03-33.22Q212.74-33.22 213.25-32.26L213.25-32.26L213.25-32.26Q213.76-31.30 213.76-30.14L213.76-30.14L213.76-30.14Q213.76-28.86 210.82-16.32L210.82-16.32L210.82-16.32Q207.87-3.78 207.87-3.01L207.87-3.01L207.87-3.01Q207.87-2.30 208.51-2.30L208.51-2.30L208.51-2.30Q208.83-2.30 209.66-3.14L209.66-3.14L209.66-3.14Q210.43-3.90 210.94-3.90L210.94-3.90L210.94-3.90Q211.97-3.90 211.97-2.62L211.97-2.62L211.97-2.62Q211.97-1.86 211.07-1.09L211.07-1.09L211.07-1.09Q210.18-0.32 209.02 0.16L209.02 0.16L209.02 0.16Q207.87 0.64 207.23 0.64L207.23 0.64ZM213.70-38.02L213.70-38.02Q212.67-38.02 212.16-38.27L212.16-38.27L211.90-38.27L211.90-38.27Q210.05-38.27 210.05-40.45L210.05-40.45L210.05-40.45Q210.05-41.54 210.98-42.43L210.98-42.43L210.98-42.43Q211.90-43.33 212.99-43.33L212.99-43.33L212.99-43.33Q214.08-43.33 215.04-42.56L215.04-42.56L215.04-42.56Q216.13-41.47 216.13-40.45L216.13-40.45L216.13-40.45Q216.13-39.49 215.39-38.75L215.39-38.75L215.39-38.75Q214.66-38.02 213.70-38.02L213.70-38.02ZM224.32 0.51L224.32 0.51Q222.02 0.51 220.83-0.70L220.83-0.70L220.83-0.70Q219.65-1.92 219.65-3.90L219.65-3.90L219.65-3.90Q219.65-5.63 219.84-7.07L219.84-7.07L219.84-7.07Q220.03-8.51 220.54-11.58L220.54-11.58L220.54-11.58Q221.57-17.54 223.17-25.15L223.17-25.15L224.83-33.22L224.83-33.22Q230.34-59.52 230.72-60.80L230.72-60.80L230.72-60.80Q231.04-61.82 232.13-61.82L232.13-61.82L232.13-61.82Q233.47-61.82 233.47-60.35L233.47-60.35L233.22-58.69L233.22-58.69Q232.90-56.64 232.51-54.88L232.51-54.88L232.51-54.88Q232.13-53.12 231.10-48.13L231.10-48.13L231.10-48.13Q229.38-40.06 226.72-27.39L226.72-27.39L226.72-27.39Q224.06-14.72 223.36-10.50L223.36-10.50L223.36-10.50Q222.53-5.89 222.53-4.74L222.53-4.74L222.53-4.74Q222.53-3.78 223.10-3.01L223.10-3.01L223.10-3.01Q223.68-2.24 224.51-2.24L224.51-2.24L224.51-2.24Q225.41-2.24 226.21-2.59L226.21-2.59L226.21-2.59Q227.01-2.94 227.26-3.07L227.26-3.07L228.35-3.65L228.35-3.65Q228.86-3.90 228.99-3.90L228.99-3.90L228.99-3.90Q230.40-3.90 230.40-2.50L230.40-2.50L230.40-2.50Q230.40-1.09 228.61-0.29L228.61-0.29L228.61-0.29Q226.82 0.51 224.32 0.51L224.32 0.51ZM260.54 1.66L260.54 1.66Q259.58 1.66 259.46 0.38L259.46 0.38L259.46 0.38Q263.74-20.03 265.15-31.23L265.15-31.23L265.15-31.23Q264.64-31.10 263.30-31.10L263.30-31.10L263.30-31.10Q261.89-31.10 260.83-31.39L260.83-31.39L260.83-31.39Q259.78-31.68 259.78-32.38L259.78-32.38L259.78-32.38Q259.78-33.54 260.58-33.82L260.58-33.82L260.58-33.82Q261.38-34.11 262.27-34.08L262.27-34.08L262.27-34.08Q263.17-34.05 263.42-34.05L263.42-34.05L265.66-34.11L265.86-35.71L265.86-35.71Q266.88-44.29 268.80-53.31L268.80-53.31L268.80-53.31Q264.26-52.10 261.54-50.94L261.54-50.94L261.54-50.94Q258.82-49.79 256.70-48.58L256.70-48.58L256.70-48.58Q255.42-47.87 255.04-47.87L255.04-47.87L255.04-47.87Q253.89-47.87 253.89-49.02L253.89-49.02L253.89-49.02Q253.89-50.56 256.86-52.06L256.86-52.06L256.86-52.06Q259.84-53.57 261.82-54.14L261.82-54.14L261.82-54.14Q263.81-54.72 269.57-56.38L269.57-56.38L269.57-56.38Q270.27-59.52 270.66-60.61L270.66-60.61L270.66-60.61Q271.36-61.57 272.26-61.57L272.26-61.57L272.26-61.57Q273.41-61.57 273.41-60.61L273.41-60.61L273.41-60.61Q273.41-60.10 273.09-59.58L273.09-59.58L272.64-57.22L272.64-57.22Q287.49-60.93 306.94-61.25L306.94-61.25L306.94-61.25Q308.03-60.93 308.03-60.16L308.03-60.16L308.03-60.16Q308.03-59.58 307.55-59.04L307.55-59.04L307.55-59.04Q307.07-58.50 306.43-58.30L306.43-58.30L306.43-58.30Q286.78-57.98 272.00-54.14L272.00-54.14L270.91-48.77L270.91-48.77Q270.08-44.74 269.63-42.21L269.63-42.21L269.63-42.21Q269.18-39.68 268.80-36.16L268.80-36.16L268.61-34.43L268.61-34.43Q275.58-35.07 279.71-35.30L279.71-35.30L279.71-35.30Q283.84-35.52 288.06-35.52L288.06-35.52L288.06-35.52Q288.51-35.52 288.74-35.20L288.74-35.20L288.74-35.20Q288.96-34.88 288.96-34.50L288.96-34.50L288.96-34.50Q288.96-33.86 288.48-33.31L288.48-33.31L288.48-33.31Q288.00-32.77 287.30-32.64L287.30-32.64L287.30-32.64Q284.93-32.45 282.30-32.38L282.30-32.38L282.30-32.38Q273.09-32.06 268.22-31.55L268.22-31.55L268.22-31.55Q267.26-24.38 265.54-15.46L265.54-15.46L265.54-15.46Q263.81-6.53 262.27 0.38L262.27 0.38L262.27 0.38Q261.70 1.66 260.54 1.66L260.54 1.66ZM302.78 0.64L302.78 0.64Q300.61 0.64 300.61-2.88L300.61-2.88L300.61-2.88Q300.61-3.78 300.93-4.48L300.93-4.48L300.93-4.48Q301.25-5.57 301.50-6.98L301.50-6.98L302.46-11.26L303.74-16.90L303.74-16.90Q304.38-20.03 305.28-23.94L305.28-23.94L305.28-23.94Q305.41-24.32 305.54-25.22L305.54-25.22L305.54-25.22Q306.18-27.97 306.18-28.42L306.18-28.42L306.18-29.06L306.18-29.06Q306.18-29.57 305.73-31.17L305.73-31.17L305.73-31.17Q305.73-31.94 306.27-32.58L306.27-32.58L306.27-32.58Q306.82-33.22 307.58-33.22L307.58-33.22L307.58-33.22Q308.29-33.22 308.80-32.26L308.80-32.26L308.80-32.26Q309.31-31.30 309.31-30.14L309.31-30.14L309.31-30.14Q309.31-28.86 306.37-16.32L306.37-16.32L306.37-16.32Q303.42-3.78 303.42-3.01L303.42-3.01L303.42-3.01Q303.42-2.30 304.06-2.30L304.06-2.30L304.06-2.30Q304.38-2.30 305.22-3.14L305.22-3.14L305.22-3.14Q305.98-3.90 306.50-3.90L306.50-3.90L306.50-3.90Q307.52-3.90 307.52-2.62L307.52-2.62L307.52-2.62Q307.52-1.86 306.62-1.09L306.62-1.09L306.62-1.09Q305.73-0.32 304.58 0.16L304.58 0.16L304.58 0.16Q303.42 0.64 302.78 0.64L302.78 0.64ZM309.25-38.02L309.25-38.02Q308.22-38.02 307.71-38.27L307.71-38.27L307.46-38.27L307.46-38.27Q305.60-38.27 305.60-40.45L305.60-40.45L305.60-40.45Q305.60-41.54 306.53-42.43L306.53-42.43L306.53-42.43Q307.46-43.33 308.54-43.33L308.54-43.33L308.54-43.33Q309.63-43.33 310.59-42.56L310.59-42.56L310.59-42.56Q311.68-41.47 311.68-40.45L311.68-40.45L311.68-40.45Q311.68-39.49 310.94-38.75L310.94-38.75L310.94-38.75Q310.21-38.02 309.25-38.02L309.25-38.02ZM320.83 0.64L320.83 0.64Q318.78 0.64 317.63-0.03L317.63-0.03L317.63-0.03Q316.48-0.70 315.78-2.11L315.78-2.11L315.78-2.11Q314.43-4.61 314.43-8.13L314.43-8.13L314.43-8.13Q314.43-14.27 316.29-19.81L316.29-19.81L316.29-19.81Q318.14-25.34 321.34-29.12L321.34-29.12L321.34-29.12Q324.42-32.70 328.06-32.70L328.06-32.70L328.06-32.70Q329.98-32.70 331.10-31.14L331.10-31.14L331.10-31.14Q332.22-29.57 332.22-27.33L332.22-27.33L332.22-27.33Q332.22-23.42 330.21-20.54L330.21-20.54L330.21-20.54Q328.19-17.66 324.80-15.74L324.80-15.74L324.80-15.74Q321.86-14.02 317.63-12.29L317.63-12.29L317.50-7.68L317.50-7.68Q317.50-2.30 320.77-2.30L320.77-2.30L320.77-2.30Q322.11-2.30 323.36-2.82L323.36-2.82L323.36-2.82Q324.61-3.33 326.08-4.22L326.08-4.22L326.08-4.22Q327.81-5.25 328.51-5.25L328.51-5.25L328.51-5.25Q329.60-5.25 329.60-4.10L329.60-4.10L329.60-4.10Q329.60-3.26 328.03-2.11L328.03-2.11L328.03-2.11Q326.46-0.96 324.35-0.16L324.35-0.16L324.35-0.16Q322.24 0.64 320.83 0.64L320.83 0.64ZM318.14-15.36L318.14-15.36Q322.43-17.09 324.67-18.43L324.67-18.43L324.67-18.43Q326.91-19.78 328.10-21.82L328.10-21.82L328.10-21.82Q329.28-23.87 329.28-27.20L329.28-27.20L329.28-27.20Q329.28-29.70 327.17-29.70L327.17-29.70L327.17-29.70Q325.31-29.70 322.82-26.30L322.82-26.30L322.82-26.30Q320.19-22.91 318.59-17.41L318.59-17.41L318.59-17.41Q318.14-15.87 318.14-15.36L318.14-15.36ZM340.61 0.51L340.61 0.51Q338.30 0.51 337.12-0.70L337.12-0.70L337.12-0.70Q335.94-1.92 335.94-3.90L335.94-3.90L335.94-3.90Q335.94-5.63 336.13-7.07L336.13-7.07L336.13-7.07Q336.32-8.51 336.83-11.58L336.83-11.58L336.83-11.58Q337.86-17.54 339.46-25.15L339.46-25.15L341.12-33.22L341.12-33.22Q346.62-59.52 347.01-60.80L347.01-60.80L347.01-60.80Q347.33-61.82 348.42-61.82L348.42-61.82L348.42-61.82Q349.76-61.82 349.76-60.35L349.76-60.35L349.50-58.69L349.50-58.69Q349.18-56.64 348.80-54.88L348.80-54.88L348.80-54.88Q348.42-53.12 347.39-48.13L347.39-48.13L347.39-48.13Q345.66-40.06 343.01-27.39L343.01-27.39L343.01-27.39Q340.35-14.72 339.65-10.50L339.65-10.50L339.65-10.50Q338.82-5.89 338.82-4.74L338.82-4.74L338.82-4.74Q338.82-3.78 339.39-3.01L339.39-3.01L339.39-3.01Q339.97-2.24 340.80-2.24L340.80-2.24L340.80-2.24Q341.70-2.24 342.50-2.59L342.50-2.59L342.50-2.59Q343.30-2.94 343.55-3.07L343.55-3.07L344.64-3.65L344.64-3.65Q345.15-3.90 345.28-3.90L345.28-3.90L345.28-3.90Q346.69-3.90 346.69-2.50L346.69-2.50L346.69-2.50Q346.69-1.09 344.90-0.29L344.90-0.29L344.90-0.29Q343.10 0.51 340.61 0.51L340.61 0.51ZM368 1.15L368 1.15Q367.23 1.15 366.62-0.67L366.62-0.67L366.62-0.67Q366.02-2.50 366.02-4.03L366.02-4.03L366.02-4.03Q366.02-5.31 366.40-7.04L366.40-7.04L366.40-7.04Q365.06-3.07 363.01-1.25L363.01-1.25L363.01-1.25Q360.96 0.58 357.76 0.58L357.76 0.58L357.76 0.58Q354.75 0.58 353.22-1.89L353.22-1.89L353.22-1.89Q351.68-4.35 351.68-7.42L351.68-7.42L351.68-7.42Q351.68-16.96 355.26-23.62L355.26-23.62L355.26-23.62Q356.99-26.62 358.27-28.13L358.27-28.13L358.27-28.13Q359.55-29.63 361.60-30.98L361.60-30.98L361.60-30.98Q363.58-32.32 366.59-32.32L366.59-32.32L366.59-32.32Q369.54-32.32 370.88-29.44L370.88-29.44L371.97-34.24L371.97-34.24Q374.08-43.39 375.49-50.30L375.49-50.30L376.64-56.06L377.34-59.39L377.34-59.39Q377.34-60.16 377.89-60.77L377.89-60.77L377.89-60.77Q378.43-61.38 379.07-61.38L379.07-61.38L379.07-61.38Q380.42-61.38 380.42-59.90L380.42-59.90L380.42-59.65L380.42-59.65Q380.42-57.92 378.24-48L378.24-48L378.24-48Q376-37.70 375.36-33.73L375.36-33.73L375.36-33.73Q374.66-29.63 372.86-22.21L372.86-22.21L371.97-18.69L371.97-18.69Q370.50-13.06 369.82-9.79L369.82-9.79L369.82-9.79Q369.15-6.53 369.22-4.22L369.22-4.22L369.22-4.22Q369.22-2.50 369.79-0.64L369.79-0.64L369.79-0.64Q369.73 0.06 369.12 0.61L369.12 0.61L369.12 0.61Q368.51 1.15 368 1.15L368 1.15ZM358.34-2.56L358.34-2.56Q359.81-2.56 362.53-6.30L362.53-6.30L362.53-6.30Q365.25-10.05 367.30-15.30L367.30-15.30L367.30-15.30Q369.34-20.54 369.34-24.96L369.34-24.96L369.34-24.96Q369.34-26.69 368.35-28.16L368.35-28.16L368.35-28.16Q367.36-29.63 365.76-29.63L365.76-29.63L365.76-29.63Q362.82-29.63 360.26-25.95L360.26-25.95L360.26-25.95Q357.70-22.27 356.10-16.77L356.10-16.77L356.10-16.77Q354.56-11.58 354.56-8.06L354.56-8.06L354.56-8.06Q354.56-5.70 355.49-4.13L355.49-4.13L355.49-4.13Q356.42-2.56 358.34-2.56L358.34-2.56ZM410.11 0.70L410.11 0.70Q405.70 0.70 402.02-0.77L402.02-0.77L402.02-0.77Q398.34-2.24 396.19-5.09L396.19-5.09L396.19-5.09Q394.05-7.94 394.05-11.84L394.05-11.84L394.05-11.84Q394.05-17.92 397.70-22.34L397.70-22.34L397.70-22.34Q398.78-23.68 400.06-24.90L400.06-24.90L400.06-24.90Q401.34-26.11 402.11-26.11L402.11-26.11L402.11-26.11Q403.33-26.11 403.33-25.02L403.33-25.02L403.33-25.02Q403.33-24.51 403.07-24.13L403.07-24.13L403.07-24.13Q399.87-21.25 398.50-18.56L398.50-18.56L398.50-18.56Q397.12-15.87 397.12-12.74L397.12-12.74L397.12-12.74Q397.12-7.36 400.93-4.74L400.93-4.74L400.93-4.74Q404.74-2.11 410.43-2.11L410.43-2.11L410.43-2.11Q414.08-2.11 416.86-4L416.86-4L416.86-4Q419.65-5.89 421.15-9.09L421.15-9.09L421.15-9.09Q422.66-12.29 422.66-16L422.66-16L422.66-16Q422.66-21.63 417.47-33.60L417.47-33.60L417.47-33.60Q412.29-45.70 412.29-50.43L412.29-50.43L412.29-50.43Q412.29-55.36 414.66-58.62L414.66-58.62L414.66-58.62Q417.02-61.89 421.44-61.89L421.44-61.89L421.44-61.89Q424.83-61.89 427.10-60.19L427.10-60.19L427.10-60.19Q429.38-58.50 430.46-56.35L430.46-56.35L430.46-56.35Q431.55-54.21 431.55-52.86L431.55-52.86L431.55-52.86Q431.55-52.22 431.01-51.74L431.01-51.74L431.01-51.74Q430.46-51.26 429.89-51.26L429.89-51.26L429.89-51.26Q428.93-51.26 428.74-52.42L428.74-52.42L428.74-52.42Q428.29-55.36 426.30-57.28L426.30-57.28L426.30-57.28Q424.32-59.20 421.44-59.20L421.44-59.20L421.44-59.20Q418.56-59.20 416.96-57.18L416.96-57.18L416.96-57.18Q415.36-55.17 415.36-52.16L415.36-52.16L415.36-52.16Q415.36-47.94 416.64-43.94L416.64-43.94L416.64-43.94Q417.92-39.94 420.54-33.86L420.54-33.86L420.54-33.86Q423.10-28.03 424.42-23.97L424.42-23.97L424.42-23.97Q425.73-19.90 425.73-15.68L425.73-15.68L425.73-15.68Q425.73-11.58 424.13-7.84L424.13-7.84L424.13-7.84Q422.53-4.10 419.01-1.70L419.01-1.70L419.01-1.70Q415.49 0.70 410.11 0.70L410.11 0.70ZM442.56 0.64L442.56 0.64Q440.51 0.64 439.36-0.03L439.36-0.03L439.36-0.03Q438.21-0.70 437.50-2.11L437.50-2.11L437.50-2.11Q436.16-4.61 436.16-8.13L436.16-8.13L436.16-8.13Q436.16-14.27 438.02-19.81L438.02-19.81L438.02-19.81Q439.87-25.34 443.07-29.12L443.07-29.12L443.07-29.12Q446.14-32.70 449.79-32.70L449.79-32.70L449.79-32.70Q451.71-32.70 452.83-31.14L452.83-31.14L452.83-31.14Q453.95-29.57 453.95-27.33L453.95-27.33L453.95-27.33Q453.95-23.42 451.94-20.54L451.94-20.54L451.94-20.54Q449.92-17.66 446.53-15.74L446.53-15.74L446.53-15.74Q443.58-14.02 439.36-12.29L439.36-12.29L439.23-7.68L439.23-7.68Q439.23-2.30 442.50-2.30L442.50-2.30L442.50-2.30Q443.84-2.30 445.09-2.82L445.09-2.82L445.09-2.82Q446.34-3.33 447.81-4.22L447.81-4.22L447.81-4.22Q449.54-5.25 450.24-5.25L450.24-5.25L450.24-5.25Q451.33-5.25 451.33-4.10L451.33-4.10L451.33-4.10Q451.33-3.26 449.76-2.11L449.76-2.11L449.76-2.11Q448.19-0.96 446.08-0.16L446.08-0.16L446.08-0.16Q443.97 0.64 442.56 0.64L442.56 0.64ZM439.87-15.36L439.87-15.36Q444.16-17.09 446.40-18.43L446.40-18.43L446.40-18.43Q448.64-19.78 449.82-21.82L449.82-21.82L449.82-21.82Q451.01-23.87 451.01-27.20L451.01-27.20L451.01-27.20Q451.01-29.70 448.90-29.70L448.90-29.70L448.90-29.70Q447.04-29.70 444.54-26.30L444.54-26.30L444.54-26.30Q441.92-22.91 440.32-17.41L440.32-17.41L440.32-17.41Q439.87-15.87 439.87-15.36L439.87-15.36ZM458.24 1.02L458.24 1.02Q457.34 1.02 457.34-0.13L457.34-0.13L458.82-7.74L461.50-21.25L461.50-21.25Q463.30-30.21 463.30-30.21L463.30-30.21L463.30-30.21Q463.55-31.62 464-32.26L464-32.26L464-32.26Q464.45-32.90 465.15-32.90L465.15-32.90L465.15-32.90Q465.79-32.90 466.14-32.58L466.14-32.58L466.14-32.58Q466.50-32.26 466.50-31.42L466.50-31.42L466.50-31.42Q466.50-29.95 465.60-26.94L465.60-26.94L465.60-26.94Q465.15-25.47 464.96-24.45L464.96-24.45L464.96-24.45Q464.70-23.55 464.38-22.43L464.38-22.43L464.38-22.43Q464.06-21.31 463.68-19.84L463.68-19.84L463.68-19.84Q465.41-23.74 466.94-26.08L466.94-26.08L466.94-26.08Q468.48-28.42 470.78-30.53L470.78-30.53L470.78-30.53Q472.96-32.38 475.14-32.38L475.14-32.38L475.14-32.38Q476.74-32.38 477.82-31.71L477.82-31.71L477.82-31.71Q478.91-31.04 478.91-30.14L478.91-30.14L478.91-30.14Q478.91-29.44 478.40-29.02L478.40-29.02L478.40-29.02Q477.89-28.61 477.12-28.61L477.12-28.61L477.12-28.61Q476.54-28.61 476.03-28.86L476.03-28.86L476.03-28.86Q475.65-29.18 475.01-29.18L475.01-29.18L475.01-29.18Q474.18-29.18 472.58-28.03L472.58-28.03L472.58-28.03Q469.57-25.86 467.49-22.30L467.49-22.30L467.49-22.30Q465.41-18.75 464.22-15.14L464.22-15.14L464.22-15.14Q463.04-11.52 461.70-6.40L461.70-6.40L461.12-4.03L461.12-4.03Q460.16 1.02 458.24 1.02L458.24 1.02ZM485.70 0.19L485.70 0.19Q484.10 0.19 483.90-1.15L483.90-1.15L483.90-1.15Q482.82-8.51 482.11-15.68L482.11-15.68L482.11-15.68Q481.09-24.32 480.13-31.62L480.13-31.62L480.13-31.62Q480.32-32.19 480.86-32.67L480.86-32.67L480.86-32.67Q481.41-33.15 481.86-33.15L481.86-33.15L481.86-33.15Q482.75-33.15 483.07-32.06L483.07-32.06L483.07-32.06Q483.78-25.41 484.61-18.94L484.61-18.94L484.61-18.94Q485.38-13.50 486.40-4.48L486.40-4.48L486.40-4.48Q491.58-12.61 494.14-18.94L494.14-18.94L494.14-18.94Q496.70-25.28 496.70-31.62L496.70-31.62L496.70-31.62Q496.70-38.34 492.74-39.87L492.74-39.87L492.74-39.87Q491.58-40.32 490.69-40.38L490.69-40.38L490.69-40.38Q489.73-40.51 489.38-40.74L489.38-40.74L489.38-40.74Q489.02-40.96 489.02-41.47L489.02-41.47L489.02-41.47Q489.02-42.82 490.82-43.07L490.82-43.07L490.82-43.07Q499.71-42.43 499.71-32.13L499.71-32.13L499.71-32.13Q499.71-21.82 492.67-9.15L492.67-9.15L492.67-9.15Q490.30-4.86 487.42-1.09L487.42-1.09L487.42-1.09Q486.46 0.19 485.70 0.19L485.70 0.19ZM503.55 0.64L503.55 0.64Q501.38 0.64 501.38-2.88L501.38-2.88L501.38-2.88Q501.38-3.78 501.70-4.48L501.70-4.48L501.70-4.48Q502.02-5.57 502.27-6.98L502.27-6.98L503.23-11.26L504.51-16.90L504.51-16.90Q505.15-20.03 506.05-23.94L506.05-23.94L506.05-23.94Q506.18-24.32 506.30-25.22L506.30-25.22L506.30-25.22Q506.94-27.97 506.94-28.42L506.94-28.42L506.94-29.06L506.94-29.06Q506.94-29.57 506.50-31.17L506.50-31.17L506.50-31.17Q506.50-31.94 507.04-32.58L507.04-32.58L507.04-32.58Q507.58-33.22 508.35-33.22L508.35-33.22L508.35-33.22Q509.06-33.22 509.57-32.26L509.57-32.26L509.57-32.26Q510.08-31.30 510.08-30.14L510.08-30.14L510.08-30.14Q510.08-28.86 507.14-16.32L507.14-16.32L507.14-16.32Q504.19-3.78 504.19-3.01L504.19-3.01L504.19-3.01Q504.19-2.30 504.83-2.30L504.83-2.30L504.83-2.30Q505.15-2.30 505.98-3.14L505.98-3.14L505.98-3.14Q506.75-3.90 507.26-3.90L507.26-3.90L507.26-3.90Q508.29-3.90 508.29-2.62L508.29-2.62L508.29-2.62Q508.29-1.86 507.39-1.09L507.39-1.09L507.39-1.09Q506.50-0.32 505.34 0.16L505.34 0.16L505.34 0.16Q504.19 0.64 503.55 0.64L503.55 0.64ZM510.02-38.02L510.02-38.02Q508.99-38.02 508.48-38.27L508.48-38.27L508.22-38.27L508.22-38.27Q506.37-38.27 506.37-40.45L506.37-40.45L506.37-40.45Q506.37-41.54 507.30-42.43L507.30-42.43L507.30-42.43Q508.22-43.33 509.31-43.33L509.31-43.33L509.31-43.33Q510.40-43.33 511.36-42.56L511.36-42.56L511.36-42.56Q512.45-41.47 512.45-40.45L512.45-40.45L512.45-40.45Q512.45-39.49 511.71-38.75L511.71-38.75L511.71-38.75Q510.98-38.02 510.02-38.02L510.02-38.02ZM521.34 0.77L521.34 0.77Q518.27 0.77 516.51-1.50L516.51-1.50L516.51-1.50Q514.75-3.78 514.75-6.98L514.75-6.98L514.75-6.98Q514.75-12.61 516.83-18.62L516.83-18.62L516.83-18.62Q518.91-24.64 522.30-28.67L522.30-28.67L522.30-28.67Q525.63-32.70 529.47-32.70L529.47-32.70L529.47-32.70Q532.22-32.70 533.06-30.72L533.06-30.72L533.06-30.72Q533.25-30.40 533.38-30.05L533.38-30.05L533.38-30.05Q533.50-29.70 533.63-29.38L533.63-29.38L533.63-29.38Q533.95-28.48 534.27-28.35L534.27-28.35L534.27-28.35Q534.53-27.71 534.53-27.39L534.53-27.39L534.53-27.39Q534.53-26.82 533.98-26.30L533.98-26.30L533.98-26.30Q533.44-25.79 532.80-25.79L532.80-25.79L532.80-25.79Q531.46-25.79 531.07-27.78L531.07-27.78L531.07-27.78Q530.69-29.76 528.96-29.76L528.96-29.76L528.96-29.76Q526.66-29.76 524.10-26.21L524.10-26.21L524.10-26.21Q521.54-22.66 519.68-17.22L519.68-17.22L519.68-17.22Q517.89-12.10 517.89-8.06L517.89-8.06L517.89-8.06Q517.89-2.37 522.05-2.37L522.05-2.37L522.05-2.37Q524.16-2.37 525.95-4.35L525.95-4.35L525.95-4.35Q526.14-4.61 526.66-5.22L526.66-5.22L526.66-5.22Q527.17-5.82 527.62-6.11L527.62-6.11L527.62-6.11Q528.06-6.40 528.45-6.40L528.45-6.40L528.45-6.40Q529.66-6.40 529.66-5.31L529.66-5.31L529.66-5.31Q529.66-4.03 528.45-2.59L528.45-2.59L528.45-2.59Q527.23-1.15 525.31-0.19L525.31-0.19L525.31-0.19Q523.39 0.77 521.34 0.77L521.34 0.77ZM543.04 0.64L543.04 0.64Q540.99 0.64 539.84-0.03L539.84-0.03L539.84-0.03Q538.69-0.70 537.98-2.11L537.98-2.11L537.98-2.11Q536.64-4.61 536.64-8.13L536.64-8.13L536.64-8.13Q536.64-14.27 538.50-19.81L538.50-19.81L538.50-19.81Q540.35-25.34 543.55-29.12L543.55-29.12L543.55-29.12Q546.62-32.70 550.27-32.70L550.27-32.70L550.27-32.70Q552.19-32.70 553.31-31.14L553.31-31.14L553.31-31.14Q554.43-29.57 554.43-27.33L554.43-27.33L554.43-27.33Q554.43-23.42 552.42-20.54L552.42-20.54L552.42-20.54Q550.40-17.66 547.01-15.74L547.01-15.74L547.01-15.74Q544.06-14.02 539.84-12.29L539.84-12.29L539.71-7.68L539.71-7.68Q539.71-2.30 542.98-2.30L542.98-2.30L542.98-2.30Q544.32-2.30 545.57-2.82L545.57-2.82L545.57-2.82Q546.82-3.33 548.29-4.22L548.29-4.22L548.29-4.22Q550.02-5.25 550.72-5.25L550.72-5.25L550.72-5.25Q551.81-5.25 551.81-4.10L551.81-4.10L551.81-4.10Q551.81-3.26 550.24-2.11L550.24-2.11L550.24-2.11Q548.67-0.96 546.56-0.16L546.56-0.16L546.56-0.16Q544.45 0.64 543.04 0.64L543.04 0.64ZM540.35-15.36L540.35-15.36Q544.64-17.09 546.88-18.43L546.88-18.43L546.88-18.43Q549.12-19.78 550.30-21.82L550.30-21.82L550.30-21.82Q551.49-23.87 551.49-27.20L551.49-27.20L551.49-27.20Q551.49-29.70 549.38-29.70L549.38-29.70L549.38-29.70Q547.52-29.70 545.02-26.30L545.02-26.30L545.02-26.30Q542.40-22.91 540.80-17.41L540.80-17.41L540.80-17.41Q540.35-15.87 540.35-15.36L540.35-15.36ZM557.18-4.74L557.18-4.74Q557.18-5.57 557.63-5.89L557.63-5.89L557.63-5.89Q558.08-6.21 558.78-6.34L558.78-6.34L558.78-6.34Q559.36-6.34 559.71-5.95L559.71-5.95L559.71-5.95Q560.06-5.57 560.58-4.74L560.58-4.74L560.58-4.74Q561.09-3.84 561.44-3.49L561.44-3.49L561.44-3.49Q561.79-3.14 562.69-3.14L562.69-3.14L562.69-3.14Q564.74-3.14 566.05-4.42L566.05-4.42L566.05-4.42Q567.36-5.70 567.36-7.42L567.36-7.42L567.36-7.42Q567.36-9.28 566.59-11.33L566.59-11.33L566.59-11.33Q565.82-13.38 564.22-16.45L564.22-16.45L564.22-16.45Q561.02-22.21 561.02-25.60L561.02-25.60L561.02-25.60Q561.02-28.99 562.72-31.04L562.72-31.04L562.72-31.04Q564.42-33.09 567.36-33.09L567.36-33.09L567.36-33.09Q569.41-33.09 571.26-31.94L571.26-31.94L571.26-31.94Q573.12-30.78 573.12-29.06L573.12-29.06L573.12-29.06Q573.12-27.20 571.58-27.20L571.58-27.20L571.58-27.20Q571.14-27.20 570.85-27.46L570.85-27.46L570.85-27.46Q570.56-27.71 570.30-28.06L570.30-28.06L570.30-28.06Q570.05-28.42 569.92-28.54L569.92-28.54L569.92-28.54Q568.77-29.89 567.36-29.89L567.36-29.89L567.36-29.89Q564.22-29.89 564.22-26.24L564.22-26.24L564.22-26.24Q564.22-24.26 564.99-22.21L564.99-22.21L564.99-22.21Q565.76-20.16 567.30-17.02L567.30-17.02L567.30-17.02Q568.77-13.95 569.54-11.90L569.54-11.90L569.54-11.90Q570.30-9.86 570.30-8L570.30-8L570.30-8Q570.30-4.74 568.32-2.50L568.32-2.50L568.32-2.50Q566.34-0.26 562.75 0.19L562.75 0.19L562.75 0.19Q560.51 0.19 558.85-1.38L558.85-1.38L558.85-1.38Q557.18-2.94 557.18-4.74L557.18-4.74ZM596.22 0.32L596.22 0.32Q595.26 0.32 595.07-1.02L595.07-1.02L595.07-1.02Q595.58-4.29 596.77-9.86L596.77-9.86L596.77-9.86Q597.95-15.42 598.27-16.83L598.27-16.83L598.27-16.83Q600-24.77 600.06-25.28L600.06-25.28L600.06-25.28Q594.62-27.01 594.62-28.42L594.62-28.42L594.62-28.42Q594.62-29.12 595.14-29.54L595.14-29.54L595.14-29.54Q595.65-29.95 596.29-29.95L596.29-29.95L596.29-29.95Q597.12-29.95 598.85-29.28L598.85-29.28L598.85-29.28Q600.58-28.61 600.70-28.48L600.70-28.48L607.10-58.50L607.10-58.50Q604.29-57.66 602.94-55.23L602.94-55.23L602.94-55.23Q602.37-54.46 601.47-54.46L601.47-54.46L601.47-54.46Q600.32-54.46 600.32-55.55L600.32-55.55L600.32-55.55Q600.32-56.38 601.28-57.63L601.28-57.63L601.28-57.63Q602.24-58.88 604-60L604-60L604-60Q605.76-61.12 608.06-61.57L608.06-61.57L608.06-61.57Q608.77-62.85 609.66-62.85L609.66-62.85L609.66-62.85Q610.56-62.85 610.75-61.89L610.75-61.89L610.75-61.89Q615.23-61.89 618.78-59.84L618.78-59.84L618.78-59.84Q622.34-57.79 624.32-54.27L624.32-54.27L624.32-54.27Q626.30-50.75 626.30-46.46L626.30-46.46L626.30-46.46Q626.30-38.66 623.30-33.60L623.30-33.60L623.30-33.60Q620.29-28.54 615.84-26.30L615.84-26.30L615.84-26.30Q611.39-24.06 606.85-24.06L606.85-24.06L606.85-24.06Q604.67-24.06 602.75-24.58L602.75-24.58L602.75-24.58Q602.43-22.78 600.90-15.74L600.90-15.74L600.90-15.74Q598.34-3.20 598.02-1.47L598.02-1.47L598.02-1.47Q597.89-0.70 597.34-0.19L597.34-0.19L597.34-0.19Q596.80 0.32 596.22 0.32L596.22 0.32ZM619.14-32.45L619.14-32.45Q623.62-37.57 623.62-44.93L623.62-44.93L623.62-44.93Q623.62-48.77 621.95-52L621.95-52L621.95-52Q620.29-55.23 617.22-57.12L617.22-57.12L617.22-57.12Q614.14-59.01 610.11-59.01L610.11-59.01L603.39-27.52L603.39-27.52Q605.44-27.07 607.10-27.07L607.10-27.07L607.10-27.07Q610.43-27.07 613.60-28.42L613.60-28.42L613.60-28.42Q616.77-29.76 619.14-32.45L619.14-32.45ZM635.78 0.19L635.78 0.19Q634.18 0.19 633.98-1.15L633.98-1.15L633.98-1.15Q632.90-8.51 632.19-15.68L632.19-15.68L632.19-15.68Q631.17-24.32 630.21-31.62L630.21-31.62L630.21-31.62Q630.40-32.19 630.94-32.67L630.94-32.67L630.94-32.67Q631.49-33.15 631.94-33.15L631.94-33.15L631.94-33.15Q632.83-33.15 633.15-32.06L633.15-32.06L633.15-32.06Q633.86-25.41 634.69-18.94L634.69-18.94L634.69-18.94Q635.46-13.50 636.48-4.48L636.48-4.48L636.48-4.48Q641.66-12.61 644.22-18.94L644.22-18.94L644.22-18.94Q646.78-25.28 646.78-31.62L646.78-31.62L646.78-31.62Q646.78-38.34 642.82-39.87L642.82-39.87L642.82-39.87Q641.66-40.32 640.77-40.38L640.77-40.38L640.77-40.38Q639.81-40.51 639.46-40.74L639.46-40.74L639.46-40.74Q639.10-40.96 639.10-41.47L639.10-41.47L639.10-41.47Q639.10-42.82 640.90-43.07L640.90-43.07L640.90-43.07Q649.79-42.43 649.79-32.13L649.79-32.13L649.79-32.13Q649.79-21.82 642.75-9.15L642.75-9.15L642.75-9.15Q640.38-4.86 637.50-1.09L637.50-1.09L637.50-1.09Q636.54 0.19 635.78 0.19L635.78 0.19ZM657.73 0.26L657.73 0.26Q655.49 0.26 654.37-0.90L654.37-0.90L654.37-0.90Q653.25-2.05 653.25-5.06L653.25-5.06L653.25-5.06Q653.25-6.72 653.63-8.90L653.63-8.90L654.21-12.54L654.91-15.55L655.30-17.28L656.13-20.80L656.13-20.80Q656.26-21.63 656.70-23.49L656.70-23.49L657.02-24.77L657.60-27.52L657.98-29.44L657.98-29.44Q655.49-29.44 653.38-29.12L653.38-29.12L653.38-29.12Q652.10-29.31 652.10-30.21L652.10-30.21L652.10-30.21Q652.10-30.85 652.61-31.42L652.61-31.42L652.61-31.42Q653.12-32 653.82-32.06L653.82-32.06L658.43-31.94L658.43-31.94Q658.43-31.94 658.75-33.54L658.75-33.54L658.75-33.54Q658.88-34.82 659.26-36.48L659.26-36.48L659.26-36.48Q659.65-38.14 660.22-39.42L660.22-39.42L660.22-39.42Q660.80-40.83 661.89-40.83L661.89-40.83L661.89-40.83Q662.91-40.83 662.91-39.68L662.91-39.68L662.91-39.30L662.91-39.30Q662.66-38.02 662.46-37.44L662.46-37.44L661.38-32L665.98-32L665.98-32Q668.42-32 668.99-31.62L668.99-31.62L668.99-31.62Q669.50-31.23 669.50-30.66L669.50-30.66L669.50-30.66Q669.50-29.63 668.58-29.34L668.58-29.34L668.58-29.34Q667.65-29.06 665.41-29.06L665.41-29.06L665.41-29.06Q663.36-29.06 660.86-29.25L660.86-29.25L660.86-29.25Q660.48-27.14 658.24-17.54L658.24-17.54L658.24-17.54Q656.19-8.83 656.19-6.53L656.19-6.53L656.19-6.53Q656.19-4.03 656.77-3.26L656.77-3.26L656.77-3.26Q657.09-2.75 658.11-2.75L658.11-2.75L658.11-2.75Q659.01-2.75 659.68-3.23L659.68-3.23L659.68-3.23Q660.35-3.71 661.06-4.54L661.06-4.54L661.06-4.54Q661.76-5.44 662.27-5.89L662.27-5.89L662.27-5.89Q662.78-6.34 663.36-6.34L663.36-6.34L663.36-6.34Q664.64-6.34 664.64-5.06L664.64-5.06L664.64-5.06Q664.64-4.42 663.36-2.94L663.36-2.94L663.36-2.94Q662.08-1.47 660.93-0.58L660.93-0.58L660.93-0.58Q659.90 0.26 657.73 0.26L657.73 0.26ZM670.91 1.02L670.91 1.02Q669.89 1.02 669.38 0.77L669.38 0.77L669.12 0.77L669.12 0.77Q667.26 0.77 667.26-1.41L667.26-1.41L667.26-1.41Q667.26-2.50 668.19-3.39L668.19-3.39L668.19-3.39Q669.12-4.29 670.21-4.29L670.21-4.29L670.21-4.29Q671.30-4.29 672.26-3.52L672.26-3.52L672.26-3.52Q673.34-2.43 673.34-1.41L673.34-1.41L673.34-1.41Q673.34-0.45 672.61 0.29L672.61 0.29L672.61 0.29Q671.87 1.02 670.91 1.02L670.91 1.02ZM713.92 0.45L713.92 0.45Q705.98 0.32 701.79 0.19L701.79 0.19L701.79 0.19Q697.60 0.06 697.12-0.03L697.12-0.03L697.12-0.03Q696.64-0.13 696.51-0.38L696.51-0.38L696.51-0.38Q696.19-0.77 696.19-1.47L696.19-1.47L696.19-1.47Q696.19-2.82 697.15-4.16L697.15-4.16L697.15-4.16Q698.50-6.27 700.29-14.02L700.29-14.02L700.29-14.02Q702.08-21.76 704.51-33.79L704.51-33.79L704.51-33.79Q704.70-34.69 706.05-41.15L706.05-41.15L706.05-41.15Q707.71-48.83 709.95-59.71L709.95-59.71L709.95-59.71Q710.14-60.35 710.72-60.80L710.72-60.80L710.72-60.80Q711.30-61.25 711.81-61.25L711.81-61.25L711.81-61.25Q712.70-61.25 712.90-60.16L712.90-60.16L712.90-60.16Q711.49-54.02 708.86-40.45L708.86-40.45L708.86-40.45Q707.33-32.38 704.54-19.65L704.54-19.65L704.54-19.65Q701.76-6.91 700.74-3.46L700.74-3.46L700.74-3.46Q707.58-2.30 711.81-2.30L711.81-2.30L711.81-2.30Q716.54-2.43 718.72-2.56L718.72-2.56L718.72-2.56Q720.90-2.69 722.94-2.94L722.94-2.94L722.94-2.94Q724.03-2.94 724.03-1.86L724.03-1.86L724.03-1.86Q724.03-1.34 723.58-0.77L723.58-0.77L723.58-0.77Q723.14-0.19 722.50 0L722.50 0L722.50 0Q717.38 0.45 713.92 0.45L713.92 0.45ZM737.02 0.26L737.02 0.26Q734.78 0.26 733.66-0.90L733.66-0.90L733.66-0.90Q732.54-2.05 732.54-5.06L732.54-5.06L732.54-5.06Q732.54-6.72 732.93-8.90L732.93-8.90L733.50-12.54L734.21-15.55L734.59-17.28L735.42-20.80L735.42-20.80Q735.55-21.63 736-23.49L736-23.49L736.32-24.77L736.90-27.52L737.28-29.44L737.28-29.44Q734.78-29.44 732.67-29.12L732.67-29.12L732.67-29.12Q731.39-29.31 731.39-30.21L731.39-30.21L731.39-30.21Q731.39-30.85 731.90-31.42L731.90-31.42L731.90-31.42Q732.42-32 733.12-32.06L733.12-32.06L737.73-31.94L737.73-31.94Q737.73-31.94 738.05-33.54L738.05-33.54L738.05-33.54Q738.18-34.82 738.56-36.48L738.56-36.48L738.56-36.48Q738.94-38.14 739.52-39.42L739.52-39.42L739.52-39.42Q740.10-40.83 741.18-40.83L741.18-40.83L741.18-40.83Q742.21-40.83 742.21-39.68L742.21-39.68L742.21-39.30L742.21-39.30Q741.95-38.02 741.76-37.44L741.76-37.44L740.67-32L745.28-32L745.28-32Q747.71-32 748.29-31.62L748.29-31.62L748.29-31.62Q748.80-31.23 748.80-30.66L748.80-30.66L748.80-30.66Q748.80-29.63 747.87-29.34L747.87-29.34L747.87-29.34Q746.94-29.06 744.70-29.06L744.70-29.06L744.70-29.06Q742.66-29.06 740.16-29.25L740.16-29.25L740.16-29.25Q739.78-27.14 737.54-17.54L737.54-17.54L737.54-17.54Q735.49-8.83 735.49-6.53L735.49-6.53L735.49-6.53Q735.49-4.03 736.06-3.26L736.06-3.26L736.06-3.26Q736.38-2.75 737.41-2.75L737.41-2.75L737.41-2.75Q738.30-2.75 738.98-3.23L738.98-3.23L738.98-3.23Q739.65-3.71 740.35-4.54L740.35-4.54L740.35-4.54Q741.06-5.44 741.57-5.89L741.57-5.89L741.57-5.89Q742.08-6.34 742.66-6.34L742.66-6.34L742.66-6.34Q743.94-6.34 743.94-5.06L743.94-5.06L743.94-5.06Q743.94-4.42 742.66-2.94L742.66-2.94L742.66-2.94Q741.38-1.47 740.22-0.58L740.22-0.58L740.22-0.58Q739.20 0.26 737.02 0.26L737.02 0.26ZM767.23 1.15L767.23 1.15Q766.46 1.15 765.86-0.67L765.86-0.67L765.86-0.67Q765.25-2.50 765.25-4.03L765.25-4.03L765.25-4.03Q765.25-5.31 765.63-7.04L765.63-7.04L765.63-7.04Q764.29-3.07 762.24-1.25L762.24-1.25L762.24-1.25Q760.19 0.58 756.99 0.58L756.99 0.58L756.99 0.58Q753.98 0.58 752.45-1.89L752.45-1.89L752.45-1.89Q750.91-4.35 750.91-7.42L750.91-7.42L750.91-7.42Q750.91-16.96 754.50-23.62L754.50-23.62L754.50-23.62Q756.22-26.62 757.50-28.13L757.50-28.13L757.50-28.13Q758.78-29.63 760.83-30.98L760.83-30.98L760.83-30.98Q762.82-32.32 765.82-32.32L765.82-32.32L765.82-32.32Q768.77-32.32 770.11-29.44L770.11-29.44L771.20-34.24L771.20-34.24Q773.31-43.39 774.72-50.30L774.72-50.30L775.87-56.06L776.58-59.39L776.58-59.39Q776.58-60.16 777.12-60.77L777.12-60.77L777.12-60.77Q777.66-61.38 778.30-61.38L778.30-61.38L778.30-61.38Q779.65-61.38 779.65-59.90L779.65-59.90L779.65-59.65L779.65-59.65Q779.65-57.92 777.47-48L777.47-48L777.47-48Q775.23-37.70 774.59-33.73L774.59-33.73L774.59-33.73Q773.89-29.63 772.10-22.21L772.10-22.21L771.20-18.69L771.20-18.69Q769.73-13.06 769.06-9.79L769.06-9.79L769.06-9.79Q768.38-6.53 768.45-4.22L768.45-4.22L768.45-4.22Q768.45-2.50 769.02-0.64L769.02-0.64L769.02-0.64Q768.96 0.06 768.35 0.61L768.35 0.61L768.35 0.61Q767.74 1.15 767.23 1.15L767.23 1.15ZM757.57-2.56L757.57-2.56Q759.04-2.56 761.76-6.30L761.76-6.30L761.76-6.30Q764.48-10.05 766.53-15.30L766.53-15.30L766.53-15.30Q768.58-20.54 768.58-24.96L768.58-24.96L768.58-24.96Q768.58-26.69 767.58-28.16L767.58-28.16L767.58-28.16Q766.59-29.63 764.99-29.63L764.99-29.63L764.99-29.63Q762.05-29.63 759.49-25.95L759.49-25.95L759.49-25.95Q756.93-22.27 755.33-16.77L755.33-16.77L755.33-16.77Q753.79-11.58 753.79-8.06L753.79-8.06L753.79-8.06Q753.79-5.70 754.72-4.13L754.72-4.13L754.72-4.13Q755.65-2.56 757.57-2.56L757.57-2.56ZM778.30 1.02L778.30 1.02Q777.28 1.02 776.77 0.77L776.77 0.77L776.51 0.77L776.51 0.77Q774.66 0.77 774.66-1.41L774.66-1.41L774.66-1.41Q774.66-2.50 775.58-3.39L775.58-3.39L775.58-3.39Q776.51-4.29 777.60-4.29L777.60-4.29L777.60-4.29Q778.69-4.29 779.65-3.52L779.65-3.52L779.65-3.52Q780.74-2.43 780.74-1.41L780.74-1.41L780.74-1.41Q780.74-0.45 780.00 0.29L780.00 0.29L780.00 0.29Q779.26 1.02 778.30 1.02L778.30 1.02Z"></path></g></g><style>text {
  font-size: 64px;
  font-family: Arial Black;
  dominant-baseline: central;
  text-anchor: middle;
}</style></svg>